<svg width="189" height="55" viewBox="0 0 189 55" fill="none" xmlns="http://www.w3.org/2000/svg">
<g clip-path="url(#clip0_168_7)">
<rect width="189" height="54" transform="translate(0 0.5)" fill="white"/>
<path d="M0 0.5V20.212H4.53308V4.92093H50.4898V50.0814H19.7788V54.5H54.9949V0.5H0Z" fill="#22007F"/>
<path d="M10.6052 50.0791H10.5562C9.75827 50.0977 8.96506 49.9542 8.22637 49.6576C7.48767 49.361 6.81944 48.9177 6.26365 48.3556C5.70415 47.8087 5.26291 47.1565 4.96636 46.4382C4.6698 45.7199 4.52402 44.9502 4.53776 44.1754V24.6444H0V44.1776C0.0245235 46.9126 1.14539 49.528 3.12008 51.4581C5.09477 53.3882 7.76447 54.4777 10.5515 54.4909H15.2224V50.0814H10.6052V50.0791Z" fill="#04DDB3"/>
<path d="M83.6879 37.5268H83.6365C82.8392 37.5453 82.0465 37.4019 81.3083 37.1058C80.5701 36.8096 79.9021 36.367 79.3463 35.8057C78.7868 35.2581 78.3455 34.6055 78.0486 33.8869C77.7517 33.1683 77.6053 32.3984 77.6181 31.6231V12.0922H73.0826V31.6254C73.109 34.3598 74.2304 36.9742 76.2047 38.9039C78.179 40.8336 80.8477 41.9237 83.6341 41.9386H88.3167V37.5291H83.6879V37.5268Z" fill="#22007F"/>
<path d="M103.334 21.8416C100.413 21.8416 97.9356 22.8202 95.9006 24.7774C94.9187 25.69 94.1405 26.7926 93.6151 28.0155C93.0897 29.2384 92.8285 30.555 92.8482 31.882C92.8482 34.8431 93.8454 37.3014 95.8399 39.2571C97.8312 41.2434 100.303 42.2365 103.255 42.2365C106.23 42.2365 108.742 41.2648 110.791 39.3213C112.84 37.3778 113.857 34.9531 113.841 32.0471C113.841 29.1777 112.829 26.7583 110.805 24.7888C108.76 22.8255 106.269 21.8431 103.334 21.8416ZM107.664 36.2526C107.089 36.8051 106.406 37.2391 105.657 37.5287C104.907 37.8184 104.107 37.958 103.302 37.9393C102.504 37.9583 101.711 37.8152 100.973 37.519C100.235 37.2228 99.5669 36.7799 99.0114 36.2182C98.4416 35.6604 97.9941 34.994 97.6964 34.2601C97.3988 33.5262 97.2574 32.7403 97.2809 31.9508C97.2675 31.1806 97.4176 30.4161 97.7215 29.7059C98.0255 28.9957 98.4767 28.3554 99.0465 27.8255C100.207 26.7321 101.753 26.1214 103.361 26.1214C104.97 26.1214 106.516 26.7321 107.676 27.8255C108.807 28.9478 109.44 30.463 109.438 32.0414C109.436 33.6197 108.798 35.1333 107.664 36.2526Z" fill="#22007F"/>
<path d="M189.001 22.4396H183.87L178.253 33.5435L172.232 22.4396H166.959L175.808 38.1638L168.773 51.2616H173.888L189.001 22.4396Z" fill="#22007F"/>
<path d="M129.026 21.2503C126.852 21.249 124.732 21.9062 122.953 23.1319V12.0922H118.418V31.7446C118.435 33.7992 119.072 35.8028 120.248 37.5028C121.424 39.2028 123.087 40.5232 125.026 41.2975C126.966 42.0717 129.095 42.2653 131.147 41.8538C133.198 41.4423 135.08 40.444 136.554 38.9849C138.028 37.5258 139.029 35.6711 139.431 33.6546C139.833 31.6381 139.617 29.5499 138.812 27.6534C138.006 25.7568 136.646 24.1367 134.904 22.9972C133.162 21.8578 131.115 21.2499 129.021 21.2503H129.026ZM133.334 35.9615C132.759 36.5141 132.076 36.948 131.327 37.2377C130.578 37.5274 129.777 37.667 128.972 37.6483C128.174 37.6673 127.382 37.5242 126.643 37.228C125.905 36.9318 125.237 36.4889 124.682 35.9272C124.113 35.3704 123.666 34.7055 123.369 33.9733C123.071 33.2411 122.929 32.4569 122.951 31.6689C122.937 30.8991 123.086 30.1348 123.39 29.4246C123.693 28.7145 124.143 28.0739 124.712 27.5437C125.873 26.4468 127.421 25.834 129.033 25.834C130.644 25.834 132.192 26.4468 133.353 27.5437C134.479 28.6652 135.109 30.1771 135.107 31.7515C135.105 33.326 134.471 34.8361 133.341 35.9547L133.334 35.9615Z" fill="#22007F"/>
<path d="M154.772 21.2503C152.599 21.2487 150.478 21.9059 148.7 23.1319V12.0922H144.162V31.7446C144.18 33.7998 144.816 35.804 145.992 37.5047C147.168 39.2054 148.831 40.5264 150.771 41.3012C152.711 42.076 154.841 42.27 156.893 41.8586C158.945 41.4472 160.827 40.449 162.302 38.9896C163.776 37.5303 164.778 35.6752 165.18 33.6582C165.582 31.6411 165.367 29.5524 164.561 27.6553C163.755 25.7582 162.395 24.1376 160.652 22.9978C158.91 21.858 156.862 21.2499 154.768 21.2503H154.772ZM159.081 35.9615C158.506 36.5141 157.823 36.948 157.074 37.2377C156.324 37.5274 155.524 37.667 154.719 37.6483C153.921 37.6673 153.128 37.5242 152.39 37.228C151.652 36.9318 150.984 36.4889 150.428 35.9272C149.272 34.795 148.695 33.3725 148.698 31.6598C148.685 30.8896 148.835 30.1251 149.139 29.4149C149.443 28.7047 149.894 28.0643 150.463 27.5345C151.624 26.4376 153.173 25.8249 154.784 25.8249C156.395 25.8249 157.944 26.4376 159.105 27.5345C160.231 28.656 160.861 30.1679 160.859 31.7423C160.856 33.3168 160.222 34.8269 159.093 35.9455L159.081 35.9615Z" fill="#22007F"/>
</g>
<defs>
<clipPath id="clip0_168_7">
<rect width="189" height="54" fill="white" transform="translate(0 0.5)"/>
</clipPath>
</defs>
</svg>
